<?xml version="1.0" encoding="UTF-8" standalone="no"?>
<svg
   xmlns:dc="http://purl.org/dc/elements/1.1/"
   xmlns:cc="http://creativecommons.org/ns#"
   xmlns:rdf="http://www.w3.org/1999/02/22-rdf-syntax-ns#"
   xmlns:svg="http://www.w3.org/2000/svg"
   xmlns="http://www.w3.org/2000/svg"
   xmlns:xlink="http://www.w3.org/1999/xlink"
   xmlns:sodipodi="http://sodipodi.sourceforge.net/DTD/sodipodi-0.dtd"
   xmlns:inkscape="http://www.inkscape.org/namespaces/inkscape"
   inkscape:version="1.0 (4035a4f, 2020-05-01)"
   inkscape:export-ydpi="384"
   inkscape:export-xdpi="384"
   inkscape:export-filename="/Users/mcherm/Documents/repos/hero-sheet/public/hero-sheet-logo.png"
   sodipodi:docname="hero-sheet-logo.svg"
   height="144px"
   width="164px"
   preserveAspectRatio="xMidYMid meet"
   viewBox="0 0 164 144"
   version="1.1"
   id="hero-sheet-logo">
  <metadata
     id="metadata951">
    <rdf:RDF>
      <cc:Work
         rdf:about="">
        <dc:format>image/svg+xml</dc:format>
        <dc:type
           rdf:resource="http://purl.org/dc/dcmitype/StillImage" />
      </cc:Work>
    </rdf:RDF>
  </metadata>
  <sodipodi:namedview
     inkscape:current-layer="hero-sheet-logo"
     inkscape:window-maximized="0"
     inkscape:window-y="25"
     inkscape:window-x="0"
     inkscape:cy="81.022654"
     inkscape:cx="73.773463"
     inkscape:zoom="3.7682927"
     showgrid="false"
     id="namedview949"
     inkscape:window-height="840"
     inkscape:window-width="1436"
     inkscape:pageshadow="2"
     inkscape:pageopacity="0"
     guidetolerance="10"
     gridtolerance="10"
     objecttolerance="10"
     borderopacity="1"
     bordercolor="#666666"
     pagecolor="#ffffff" />
  <defs
     id="defs926">
    <path
       d="m 2.7,21.8 c 5.67,-9.22 35.2,-7.11 44.7,-8.98 9.43,-1.87 19.6,-14.7 35.7,-10.6 16.1,4.09 77.5,105 77.5,105 -24.4,-6.40 -9.15,18.4 -16.1,15.8 -13.9,-4.98 -38,1.18 -34.3,11.1 2.85,7.47 -31.7,-7.8 -28.8,4.02 2.03,8.47 -23.2,-7.09 -28.8,3.78 -2.05,3.94 -55.5,-111 -49.9,-120 z"
       id="cape" />
  </defs>
  <g
     id="g946">
    <style
       id="style928"
       type="text/css">
      .cape-background{
      fill: #FFFFFF;
      }
      .cape-border {
      fill: none;
      stroke: #000000;
      stroke-width: 1.5;
      }
      .cape-wrinkle {
      fill: #abbcff;
      }
      .name-circle {
      fill: #9409da;
      stroke: #000000;
      stroke-width: 1.5;
      }
      .name-text {
      font-size: 22px;
      font-family: 'Arial Rounded MT Bold';
      fill: #ffffff;
      stroke: #000000;
      stroke-width: 0.25;
      }
    </style>
    <use
       id="use930"
       class="cape-background"
       xlink:href="#cape" />
    <path
       id="path932"
       d="m26,66 c0,0 28,69 30,73 c1.8,-1.7 4,0 8,-1 c-2,-4 -38,-73 -38,-73 z"
       class="cape-wrinkle" />
    <path
       id="path934"
       d="m51,67 c0,0 28,70 30,73 c0,-5,3,-7,6,-6 c-2,-5,-36,-67,-36,-67 z"
       class="cape-wrinkle" />
    <path
       id="path936"
       d="m75,57 c0,0 32,76 35,79 c0,-5 2,-8 5,-10 c-2,-5 -40,-69 -40,-69 z"
       class="cape-wrinkle" />
    <path
       id="path938"
       d="m104,41 c0,0 40,77 42,81 c-1,-10 1,-14 4,-15 c-2,-5 -46,-66 -46,-66 z"
       class="cape-wrinkle" />
    <use
       id="use940"
       class="cape-border"
       xlink:href="#cape" />
    <ellipse
       id="ellipse942"
       cy="38"
       cx="56"
       ry="18"
       rx="18"
       class="name-circle" />
    <text
       id="text944"
       transform="matrix(0.716,-0.308,0.579,1.147,0,0)"
       y="53"
       x="27"
       class="name-text">HS</text>
  </g>
</svg>
