<?xml version="1.0" encoding="UTF-8" standalone="no"?>
<svg
    xmlns="http://www.w3.org/2000/svg"
    xmlns:xlink="http://www.w3.org/1999/xlink"
    id="hero-sheet-logo"
    version="1.1"
    viewBox="0 0 164 144"
    preserveAspectRatio="xMidYMid meet"
    width="164px"
    height="144px"
>
  <defs>
    <path
        id="cape"
        d="m 2.7,21.8 c 5.67,-9.22 35.2,-7.11 44.7,-8.98 9.43,-1.87 19.6,-14.7 35.7,-10.6 16.1,4.09 77.5,105 77.5,105 -24.4,-6.40 -9.15,18.4 -16.1,15.8 -13.9,-4.98 -38,1.18 -34.3,11.1 2.85,7.47 -31.7,-7.8 -28.8,4.02 2.03,8.47 -23.2,-7.09 -28.8,3.78 -2.05,3.94 -55.5,-111 -49.9,-120 z"
    />
  </defs>
  <g>
    <style type="text/css">
      .cape-background{
      fill: #FFFFFF;
      }
      .cape-border {
      fill: none;
      stroke: #000000;
      stroke-width: 1.5;
      }
      .cape-wrinkle {
      fill: #abbcff;
      }
      .name-circle {
      fill: #9409da;
      stroke: #000000;
      stroke-width: 1.5;
      }
      .name-text {
      font-size: 22px;
      font-family: 'Arial Rounded MT Bold';
      fill: #ffffff;
      stroke: #000000;
      stroke-width: 0.25;
      }
    </style>
    <use xlink:href="#cape" class="cape-background"/>
    <path
        class="cape-wrinkle"
        d= "m26,66 c0,0 28,69 30,73 c1.8,-1.7 4,0 8,-1 c-2,-4 -38,-73 -38,-73 z"
    />
    <path
        class="cape-wrinkle"
        d= "m51,67 c0,0 28,70 30,73 c0,-5,3,-7,6,-6 c-2,-5,-36,-67,-36,-67 z"
    />
    <path
        class="cape-wrinkle"
        d="m75,57 c0,0 32,76 35,79 c0,-5 2,-8 5,-10 c-2,-5 -40,-69 -40,-69 z"
    />
    <path
        class="cape-wrinkle"
        d="m104,41 c0,0 40,77 42,81 c-1,-10 1,-14 4,-15 c-2,-5 -46,-66 -46,-66 z"
    />
    <use xlink:href="#cape" class="cape-border"/>
    <ellipse
        class="name-circle"
        rx="18"
        ry="18"
        cx="56"
        cy="38"
    />
    <text
        class="name-text"
        x="27"
        y="53"
        transform="matrix(0.716,-0.308,0.579,1.147,0,0)"
    >HS</text>
  </g>
</svg>
