<?xml version="1.0" encoding="UTF-8" standalone="no"?>
<svg
    xmlns="http://www.w3.org/2000/svg"
    xmlns:xlink="http://www.w3.org/1999/xlink"
    id="hero-sheet-logo"
    version="1.1"
    viewBox="0 0 164 106"
    preserveAspectRatio="xMidYMid meet"
    height="400"
    width="400"
>
  <defs>
    <path
        id="cape"
        d="m 2.7,-6.2 c 5.67,-9.22 35.2,-7.11 44.7,-8.98 9.43,-1.87 19.6,-14.7 35.7,-10.6 16.1,4.09 77.5,105 77.5,105 -24.4,-6.40 -9.15,18.4 -16.1,15.8 -13.9,-4.98 -38,1.18 -34.3,11.1 2.85,7.47 -31.7,-7.8 -28.8,4.02 2.03,8.47 -23.2,-7.09 -28.8,3.78 -2.05,3.94 -55.5,-111 -49.9,-120 z"
    />
  </defs>
  <g>
    <style type="text/css">
      .cape-background{
        fill: #FFFFFF;
      }
      .cape-border {
        fill: none;
        stroke: #000000;
        stroke-width: 1.5;
      }
      .cape-wrinkle {
        fill: #abbcff;
      }
      .name-circle {
        fill: #9409da;
        stroke: #000000;
        stroke-width: 1.5;
      }
      .name-text {
        font-size: 22px;
        font-family: 'Arial Rounded MT Bold';
        fill: #ffffff;
        stroke: #000000;
        stroke-width: 0.25;
      }
    </style>
    <use xlink:href="#cape" class="cape-background"/>
    <path
        class="cape-wrinkle"
        d="m 26,38 c 0,0 29,71 31,74 1.8,-1.7 3,-2 7,-2.6 -2.5,-4 -38,-72 -38,-72 z"
    />
    <path
        class="cape-wrinkle"
        d="m 51,39 c 0,0 28,70 30.251,72.76 -0.1,-4.5 4.3,-4.3 7.6,-3.8 -2.5,-4 -38,-69 -37.8,-69 z"
    />
    <path
        class="cape-wrinkle"
        d="m 75,29 c 0,0 32,75 34.8,78 -0.1,-4.5 2.7,-6 6.26,-8.3 -2.5,-4 -41,-70 -41,-70 z"
    />
    <path
        class="cape-wrinkle"
        d="m 104,13 c 0,0 40,77 42.3,80.6 -0.58,-9.7 2,-12 5.75,-13.4 -2.5,-4 -48,-67 -48,-67 z"
    />
    <use xlink:href="#cape" class="cape-border"/>
    <ellipse
        class="name-circle"
        ry="18"
        rx="18"
        cx="56"
        cy="10"
    />
    <text
        class="name-text"
        transform="matrix(0.716,-0.308,0.579,1.147,0,0)"
        x="43"
        y="32"
    >HS</text>
  </g>
</svg>
