<?xml version="1.0" encoding="UTF-8" standalone="no"?>
<svg
   xmlns:dc="http://purl.org/dc/elements/1.1/"
   xmlns:cc="http://creativecommons.org/ns#"
   xmlns:rdf="http://www.w3.org/1999/02/22-rdf-syntax-ns#"
   xmlns:svg="http://www.w3.org/2000/svg"
   xmlns="http://www.w3.org/2000/svg"
   xmlns:sodipodi="http://sodipodi.sourceforge.net/DTD/sodipodi-0.dtd"
   xmlns:inkscape="http://www.inkscape.org/namespaces/inkscape"
   sodipodi:docname="logo_inkscape.svg"
   inkscape:version="1.0 (4035a4f, 2020-05-01)"
   id="svg8"
   version="1.1"
   viewBox="0 0 210 297"
   height="297mm"
   width="210mm">
  <defs
     id="defs2" />
  <sodipodi:namedview
     inkscape:window-maximized="0"
     inkscape:window-y="25"
     inkscape:window-x="0"
     inkscape:window-height="943"
     inkscape:window-width="1673"
     showgrid="false"
     inkscape:document-rotation="0"
     inkscape:current-layer="layer1"
     inkscape:document-units="mm"
     inkscape:cy="515.33719"
     inkscape:cx="243.89354"
     inkscape:zoom="0.67521728"
     inkscape:pageshadow="2"
     inkscape:pageopacity="0.0"
     borderopacity="1.0"
     bordercolor="#666666"
     pagecolor="#ffffff"
     id="base" />
  <metadata
     id="metadata5">
    <rdf:RDF>
      <cc:Work
         rdf:about="">
        <dc:format>image/svg+xml</dc:format>
        <dc:type
           rdf:resource="http://purl.org/dc/dcmitype/StillImage" />
        <dc:title></dc:title>
      </cc:Work>
    </rdf:RDF>
  </metadata>
  <g
     id="layer1"
     inkscape:groupmode="layer"
     inkscape:label="Layer 1">
    <path
       style="fill:#abbcff;fill-opacity:1;stroke:none;stroke-width:0.264583px;stroke-linecap:butt;stroke-linejoin:miter;stroke-opacity:1"
       d="m 119.57388,97.685111 c 0,0 39.85892,77.335219 42.34671,80.588479 -0.58393,-9.70964 2.02017,-12.27785 5.75562,-13.41472 -2.48779,-4.01873 -48.10233,-67.173759 -48.10233,-67.173759 z"
       id="path863-1"
       sodipodi:nodetypes="cccc" />
    <path
       sodipodi:nodetypes="cccc"
       id="path863"
       d="m 66.872497,123.61737 c 0,0 27.763602,69.50394 30.251389,72.7572 -0.09667,-4.51248 4.308694,-4.35507 7.561954,-3.78097 -2.48779,-4.01873 -37.813343,-68.97623 -37.813343,-68.97623 z"
       style="fill:#abbcff;fill-opacity:1;stroke:none;stroke-width:0.264583px;stroke-linecap:butt;stroke-linejoin:miter;stroke-opacity:1" />
    <path
       style="fill:#abbcff;fill-opacity:1;stroke:none;stroke-width:0.264583px;stroke-linecap:butt;stroke-linejoin:miter;stroke-opacity:1"
       d="m 90.922261,113.82927 c 0,0 32.273339,74.7453 34.761119,77.99856 -0.0967,-4.51248 2.68459,-6.14159 6.26267,-8.32848 -2.48779,-4.01873 -41.023789,-69.67008 -41.023789,-69.67008 z"
       id="path863-3"
       sodipodi:nodetypes="cccc" />
    <path
       style="fill:#abbcff;fill-opacity:1;stroke:none;stroke-width:0.264583px;stroke-linecap:butt;stroke-linejoin:miter;stroke-opacity:1"
       d="m 38.614074,124.58479 c 0,0 29.170142,70.65764 31.333107,74.56054 1.833854,-1.69279 3.009406,-1.9189 6.912309,-2.64409 -2.48779,-4.01873 -38.245416,-71.91645 -38.245416,-71.91645 z"
       id="path863-4"
       sodipodi:nodetypes="cccc" />
    <ellipse
       ry="17.756819"
       rx="19.324215"
       cy="97.049767"
       cx="71.206543"
       id="path18"
       style="fill:#9409da;fill-opacity:1;stroke:#000000;stroke-width:1.92873;stroke-miterlimit:4;stroke-dasharray:none;stroke-opacity:1" />
    <text
       transform="matrix(0.7163909,-0.30823919,0.57944025,1.1465721,0,0)"
       id="text12"
       y="99.086067"
       x="10.79402"
       style="font-style:normal;font-weight:normal;font-size:10.9999px;line-height:1.25;font-family:sans-serif;fill:#ffffff;fill-opacity:1;stroke:#000000;stroke-width:0.274998;stroke-opacity:1"
       xml:space="preserve"><tspan
         style="font-style:normal;font-variant:normal;font-weight:normal;font-stretch:normal;font-size:21.9998px;font-family:'Arial Rounded MT Bold';-inkscape-font-specification:'Arial Rounded MT Bold, Normal';font-variant-ligatures:normal;font-variant-caps:normal;font-variant-numeric:normal;font-variant-east-asian:normal;fill:#ffffff;fill-opacity:1;stroke:#000000;stroke-width:0.274998;stroke-opacity:1"
         y="99.086067"
         x="10.79402"
         id="tspan10"
         sodipodi:role="line">HS</tspan></text>
    <text
       id="text16"
       y="84.991707"
       x="167.31071"
       style="font-style:normal;font-weight:normal;font-size:10.58329999999999949px;line-height:1.25;font-family:sans-serif;fill:#000000;fill-opacity:1;stroke:#e40000;stroke-width:0.264583;stroke-opacity:0.65395892;"
       xml:space="preserve"><tspan
         style="stroke-width:0.264583;stroke:#e40000;stroke-opacity:0.65395892;"
         y="84.991707"
         x="167.31071"
         id="tspan14"
         sodipodi:role="line"></tspan></text>
    <path
       sodipodi:nodetypes="zzzccsssz"
       id="path861"
       d="m 18.668582,80.818417 c 5.672496,-9.217164 35.236167,-7.108578 44.662808,-8.979824 9.426642,-1.871246 19.615117,-14.727061 35.682985,-10.634002 16.067865,4.093058 77.510065,104.922159 77.510065,104.922159 -24.37093,-6.39784 -9.15304,18.35035 -16.06917,15.83284 -13.87407,-4.9848 -38.04609,1.18156 -34.26511,11.10663 2.84663,7.4724 -31.665695,-7.79827 -28.829961,4.01729 2.03378,8.47408 -23.158493,-7.08933 -28.829963,3.78098 -2.05374,3.93633 -55.53415,-110.828909 -49.861654,-120.046073 z"
       style="fill:none;stroke:#000000;stroke-width:1.465;stroke-linecap:butt;stroke-linejoin:miter;stroke-opacity:1;stroke-miterlimit:4;stroke-dasharray:none" />
  </g>
</svg>
