<?xml version="1.0" encoding="UTF-8" standalone="no"?>
<svg
    xmlns="http://www.w3.org/2000/svg"
    id="hero-sheet-logo"
    version="1.1"
    viewBox="0 0 210 297"
    height="297mm"
    width="210mm">
  <defs/>
  <g>
    <style type="text/css">
      .cape-border {
      }
      .cape-wrinkle {
        fill: #abbcff;
      }
      .name-circle {
        fill: #9409da;
        stroke: #000000;
        stroke-width: 1.92873;
      }
      .name-text {
        font-size: 22px;
        font-family: 'Arial Rounded MT Bold';
        fill: #ffffff;
        stroke: #000000;
        stroke-width: 0.25;
      }
    </style>
    <path
        class="cape-wrinkle"
        d="m 38.614074,124.58479 c 0,0 29.170142,70.65764 31.333107,74.56054 1.833854,-1.69279 3.009406,-1.9189 6.912309,-2.64409 -2.48779,-4.01873 -38.245416,-71.91645 -38.245416,-71.91645 z"
    />
    <path
        class="cape-wrinkle"
        d="m 66.872497,123.61737 c 0,0 27.763602,69.50394 30.251389,72.7572 -0.09667,-4.51248 4.308694,-4.35507 7.561954,-3.78097 -2.48779,-4.01873 -37.813343,-68.97623 -37.813343,-68.97623 z"
    />
    <path
        class="cape-wrinkle"
        d="m 90.922261,113.82927 c 0,0 32.273339,74.7453 34.761119,77.99856 -0.0967,-4.51248 2.68459,-6.14159 6.26267,-8.32848 -2.48779,-4.01873 -41.023789,-69.67008 -41.023789,-69.67008 z"
    />
    <path
        class="cape-wrinkle"
        d="m 119.57388,97.685111 c 0,0 39.85892,77.335219 42.34671,80.588479 -0.58393,-9.70964 2.02017,-12.27785 5.75562,-13.41472 -2.48779,-4.01873 -48.10233,-67.173759 -48.10233,-67.173759 z"
    />
    <path
        id="path861"
        d="m 18.668582,80.818417 c 5.672496,-9.217164 35.236167,-7.108578 44.662808,-8.979824 9.426642,-1.871246 19.615117,-14.727061 35.682985,-10.634002 16.067865,4.093058 77.510065,104.922159 77.510065,104.922159 -24.37093,-6.39784 -9.15304,18.35035 -16.06917,15.83284 -13.87407,-4.9848 -38.04609,1.18156 -34.26511,11.10663 2.84663,7.4724 -31.665695,-7.79827 -28.829961,4.01729 2.03378,8.47408 -23.158493,-7.08933 -28.829963,3.78098 -2.05374,3.93633 -55.53415,-110.828909 -49.861654,-120.046073 z"
        style="fill:none;stroke:#000000;stroke-width:1.465;stroke-linecap:butt;stroke-linejoin:miter;stroke-opacity:1;stroke-miterlimit:4;stroke-dasharray:none"
    />
    <ellipse
        class="name-circle"
        ry="18"
        rx="18"
        cy="97.049767"
        cx="71.206543"
    />
    <text
        class="name-text"
        transform="matrix(0.7163909,-0.30823919,0.57944025,1.1465721,0,0)"
        y="99.086067"
        x="10.79402"
        xml:space="preserve"
    >HS</text>
  </g>
</svg>
